{
	"asset":{
		"generator":"Khronos glTF Blender I/O v3.6.27",
		"version":"2.0"
	},
	"extensionsUsed":[
		"KHR_texture_transform"
	],
	"extensionsRequired":[
		"KHR_texture_transform"
	],
	"scene":0,
	"scenes":[
		{
			"name":"Scene",
			"nodes":[
				0,
				1,
				2
			]
		}
	],
	"nodes":[
		{
			"mesh":0,
			"name":"DrawCordBody"
		},
		{
			"mesh":1,
			"name":"DrawCordHead"
		},
		{
			"mesh":2,
			"name":"DrawCordTail"
		}
	],
	"materials":[
		{
			"doubleSided":true,
			"name":"Pattern_Mat",
			"normalTexture":{
				"extensions":{
					"KHR_texture_transform":{
						"offset":[
							0,
							-1
						],
						"scale":[
							2,
							2
						]
					}
				},
				"index":0
			},
			"pbrMetallicRoughness":{
				"baseColorTexture":{
					"extensions":{
						"KHR_texture_transform":{
							"offset":[
								0,
								-1
							],
							"scale":[
								2,
								2
							]
						}
					},
					"index":1
				},
				"metallicFactor":0,
				"metallicRoughnessTexture":{
					"extensions":{
						"KHR_texture_transform":{
							"offset":[
								0,
								-1
							],
							"scale":[
								2,
								2
							]
						}
					},
					"index":2
				}
			}
		},
		{
			"doubleSided":true,
			"name":"WhitePlastic_Mat",
			"pbrMetallicRoughness":{
				"baseColorFactor":[
					0.42002370953559875,
					0.42002370953559875,
					0.42002370953559875,
					1
				],
				"metallicFactor":0,
				"roughnessFactor":0.3818897604942322
			}
		},
		{
			"doubleSided":true,
			"name":"BlackPlastic_Mat",
			"pbrMetallicRoughness":{
				"baseColorFactor":[
					0.010566134005784988,
					0.010566134005784988,
					0.010566134005784988,
					1
				],
				"metallicFactor":0,
				"roughnessFactor":0.5
			}
		}
	],
	"meshes":[
		{
			"name":"Cylinder.011",
			"primitives":[
				{
					"attributes":{
						"POSITION":0,
						"NORMAL":1,
						"TEXCOORD_0":2
					},
					"indices":3,
					"material":0
				}
			]
		},
		{
			"name":"Cylinder.002",
			"primitives":[
				{
					"attributes":{
						"POSITION":4,
						"NORMAL":5,
						"TEXCOORD_0":6
					},
					"indices":7,
					"material":1
				},
				{
					"attributes":{
						"POSITION":8,
						"NORMAL":9,
						"TEXCOORD_0":10
					},
					"indices":11,
					"material":2
				}
			]
		},
		{
			"name":"Cylinder.001",
			"primitives":[
				{
					"attributes":{
						"POSITION":12,
						"NORMAL":13,
						"TEXCOORD_0":14
					},
					"indices":7,
					"material":1
				},
				{
					"attributes":{
						"POSITION":15,
						"NORMAL":16,
						"TEXCOORD_0":17
					},
					"indices":18,
					"material":2
				}
			]
		}
	],
	"textures":[
		{
			"sampler":0,
			"source":0
		},
		{
			"sampler":0,
			"source":1
		},
		{
			"sampler":0,
			"source":2
		}
	],
	"images":[
		{
			"mimeType":"image/png",
			"name":"Substance_graph_normal",
			"uri":"Substance_graph_normal.png"
		},
		{
			"mimeType":"image/png",
			"name":"Substance_graph_basecolor",
			"uri":"Substance_graph_basecolor.png"
		},
		{
			"mimeType":"image/png",
			"name":"Substance_graph_roughness",
			"uri":"Substance_graph_roughness.png"
		}
	],
	"accessors":[
		{
			"bufferView":0,
			"componentType":5126,
			"count":94380,
			"max":[
				0.7074311375617981,
				0.04097677394747734,
				0.6605144143104553
			],
			"min":[
				-0.6904471516609192,
				-0.03159334883093834,
				-0.6963367462158203
			],
			"type":"VEC3"
		},
		{
			"bufferView":1,
			"componentType":5126,
			"count":94380,
			"type":"VEC3"
		},
		{
			"bufferView":2,
			"componentType":5126,
			"count":94380,
			"type":"VEC2"
		},
		{
			"bufferView":3,
			"componentType":5125,
			"count":524160,
			"type":"SCALAR"
		},
		{
			"bufferView":4,
			"componentType":5126,
			"count":581,
			"max":[
				-0.29722779989242554,
				0.15260857343673706,
				0.2248254120349884
			],
			"min":[
				-0.5114231705665588,
				0.039684899151325226,
				0.026337578892707825
			],
			"type":"VEC3"
		},
		{
			"bufferView":5,
			"componentType":5126,
			"count":581,
			"type":"VEC3"
		},
		{
			"bufferView":6,
			"componentType":5126,
			"count":581,
			"type":"VEC2"
		},
		{
			"bufferView":7,
			"componentType":5123,
			"count":2976,
			"type":"SCALAR"
		},
		{
			"bufferView":8,
			"componentType":5126,
			"count":259,
			"max":[
				-0.03190343827009201,
				0.11003090441226959,
				0.0833868682384491
			],
			"min":[
				-0.3430318534374237,
				-0.033860497176647186,
				-0.16541345417499542
			],
			"type":"VEC3"
		},
		{
			"bufferView":9,
			"componentType":5126,
			"count":259,
			"type":"VEC3"
		},
		{
			"bufferView":10,
			"componentType":5126,
			"count":259,
			"type":"VEC2"
		},
		{
			"bufferView":11,
			"componentType":5123,
			"count":1152,
			"type":"SCALAR"
		},
		{
			"bufferView":12,
			"componentType":5126,
			"count":581,
			"max":[
				0.7330206036567688,
				0.041884906589984894,
				0.3990683853626251
			],
			"min":[
				0.6475637555122375,
				-0.04188482090830803,
				0.1678449809551239
			],
			"type":"VEC3"
		},
		{
			"bufferView":13,
			"componentType":5126,
			"count":581,
			"type":"VEC3"
		},
		{
			"bufferView":14,
			"componentType":5126,
			"count":581,
			"type":"VEC2"
		},
		{
			"bufferView":15,
			"componentType":5126,
			"count":275,
			"max":[
				0.7193002700805664,
				0.035958219319581985,
				0.1742127239704132
			],
			"min":[
				0.6156076192855835,
				-0.03595815598964691,
				-0.16709618270397186
			],
			"type":"VEC3"
		},
		{
			"bufferView":16,
			"componentType":5126,
			"count":275,
			"type":"VEC3"
		},
		{
			"bufferView":17,
			"componentType":5126,
			"count":275,
			"type":"VEC2"
		},
		{
			"bufferView":18,
			"componentType":5123,
			"count":1152,
			"type":"SCALAR"
		}
	],
	"bufferViews":[
		{
			"buffer":0,
			"byteLength":1132560,
			"byteOffset":0,
			"target":34962
		},
		{
			"buffer":0,
			"byteLength":1132560,
			"byteOffset":1132560,
			"target":34962
		},
		{
			"buffer":0,
			"byteLength":755040,
			"byteOffset":2265120,
			"target":34962
		},
		{
			"buffer":0,
			"byteLength":2096640,
			"byteOffset":3020160,
			"target":34963
		},
		{
			"buffer":0,
			"byteLength":6972,
			"byteOffset":5116800,
			"target":34962
		},
		{
			"buffer":0,
			"byteLength":6972,
			"byteOffset":5123772,
			"target":34962
		},
		{
			"buffer":0,
			"byteLength":4648,
			"byteOffset":5130744,
			"target":34962
		},
		{
			"buffer":0,
			"byteLength":5952,
			"byteOffset":5135392,
			"target":34963
		},
		{
			"buffer":0,
			"byteLength":3108,
			"byteOffset":5141344,
			"target":34962
		},
		{
			"buffer":0,
			"byteLength":3108,
			"byteOffset":5144452,
			"target":34962
		},
		{
			"buffer":0,
			"byteLength":2072,
			"byteOffset":5147560,
			"target":34962
		},
		{
			"buffer":0,
			"byteLength":2304,
			"byteOffset":5149632,
			"target":34963
		},
		{
			"buffer":0,
			"byteLength":6972,
			"byteOffset":5151936,
			"target":34962
		},
		{
			"buffer":0,
			"byteLength":6972,
			"byteOffset":5158908,
			"target":34962
		},
		{
			"buffer":0,
			"byteLength":4648,
			"byteOffset":5165880,
			"target":34962
		},
		{
			"buffer":0,
			"byteLength":3300,
			"byteOffset":5170528,
			"target":34962
		},
		{
			"buffer":0,
			"byteLength":3300,
			"byteOffset":5173828,
			"target":34962
		},
		{
			"buffer":0,
			"byteLength":2200,
			"byteOffset":5177128,
			"target":34962
		},
		{
			"buffer":0,
			"byteLength":2304,
			"byteOffset":5179328,
			"target":34963
		}
	],
	"samplers":[
		{
			"magFilter":9729,
			"minFilter":9987
		}
	],
	"buffers":[
		{
			"byteLength":5181632,
			"uri":"Draw%20cord_V2.bin"
		}
	]
}
