{
	"asset":{
		"generator":"Khronos glTF Blender I/O v3.6.27",
		"version":"2.0"
	},
	"extensionsUsed":[
		"KHR_texture_transform"
	],
	"extensionsRequired":[
		"KHR_texture_transform"
	],
	"scene":0,
	"scenes":[
		{
			"name":"Scene",
			"nodes":[
				0
			]
		}
	],
	"nodes":[
		{
			"mesh":0,
			"name":"WovenElastic"
		}
	],
	"materials":[
		{
			"doubleSided":true,
			"name":"Front_Mat_1k",
			"normalTexture":{
				"extensions":{
					"KHR_texture_transform":{
						"offset":[
							0,
							-2
						],
						"scale":[
							1,
							3
						]
					}
				},
				"index":0
			},
			"pbrMetallicRoughness":{
				"baseColorTexture":{
					"extensions":{
						"KHR_texture_transform":{
							"offset":[
								0,
								-2
							],
							"scale":[
								1,
								3
							]
						}
					},
					"index":1
				},
				"metallicFactor":0,
				"metallicRoughnessTexture":{
					"extensions":{
						"KHR_texture_transform":{
							"offset":[
								0,
								-2
							],
							"scale":[
								1,
								3
							]
						}
					},
					"index":2
				}
			}
		},
		{
			"doubleSided":true,
			"name":"Back_Mat_1k",
			"normalTexture":{
				"extensions":{
					"KHR_texture_transform":{
						"offset":[
							0,
							-2
						],
						"scale":[
							1,
							3
						]
					}
				},
				"index":3
			},
			"pbrMetallicRoughness":{
				"baseColorTexture":{
					"extensions":{
						"KHR_texture_transform":{
							"offset":[
								0,
								-2
							],
							"scale":[
								1,
								3
							]
						}
					},
					"index":4
				},
				"metallicFactor":0,
				"metallicRoughnessTexture":{
					"extensions":{
						"KHR_texture_transform":{
							"offset":[
								0,
								-2
							],
							"scale":[
								1,
								3
							]
						}
					},
					"index":5
				}
			}
		}
	],
	"meshes":[
		{
			"name":"Plane",
			"primitives":[
				{
					"attributes":{
						"POSITION":0,
						"NORMAL":1,
						"TEXCOORD_0":2
					},
					"indices":3,
					"material":0
				},
				{
					"attributes":{
						"POSITION":4,
						"NORMAL":5,
						"TEXCOORD_0":6
					},
					"indices":7,
					"material":1
				}
			]
		}
	],
	"textures":[
		{
			"sampler":0,
			"source":0
		},
		{
			"sampler":0,
			"source":1
		},
		{
			"sampler":0,
			"source":2
		},
		{
			"sampler":0,
			"source":3
		},
		{
			"sampler":0,
			"source":4
		},
		{
			"sampler":0,
			"source":5
		}
	],
	"images":[
		{
			"mimeType":"image/jpeg",
			"name":"jadoube_tex_normal",
			"uri":"jadoube_tex_normal.jpg"
		},
		{
			"mimeType":"image/jpeg",
			"name":"jadoube_tex_basecolor",
			"uri":"jadoube_tex_basecolor.jpg"
		},
		{
			"mimeType":"image/png",
			"name":"jadoube_tex_roughness",
			"uri":"jadoube_tex_roughness.png"
		},
		{
			"mimeType":"image/jpeg",
			"name":"jadoube_tex_normal",
			"uri":"jadoube_tex_normal-1.jpg"
		},
		{
			"mimeType":"image/jpeg",
			"name":"jadoube_tex_basecolor",
			"uri":"jadoube_tex_basecolor-1.jpg"
		},
		{
			"mimeType":"image/png",
			"name":"jadoube_tex_roughness",
			"uri":"jadoube_tex_roughness-1.png"
		}
	],
	"accessors":[
		{
			"bufferView":0,
			"componentType":5126,
			"count":12269,
			"max":[
				1.203141450881958,
				0.5703389644622803,
				0.4970202147960663
			],
			"min":[
				-1.1138544082641602,
				0.00412335991859436,
				-0.06379704922437668
			],
			"type":"VEC3"
		},
		{
			"bufferView":1,
			"componentType":5126,
			"count":12269,
			"type":"VEC3"
		},
		{
			"bufferView":2,
			"componentType":5126,
			"count":12269,
			"type":"VEC2"
		},
		{
			"bufferView":3,
			"componentType":5123,
			"count":69096,
			"type":"SCALAR"
		},
		{
			"bufferView":4,
			"componentType":5126,
			"count":11269,
			"max":[
				1.202156662940979,
				0.5703389644622803,
				0.49603530764579773
			],
			"min":[
				-1.1138544082641602,
				0.004296988248825073,
				-0.06281226873397827
			],
			"type":"VEC3"
		},
		{
			"bufferView":5,
			"componentType":5126,
			"count":11269,
			"type":"VEC3"
		},
		{
			"bufferView":6,
			"componentType":5126,
			"count":11269,
			"type":"VEC2"
		},
		{
			"bufferView":7,
			"componentType":5123,
			"count":66120,
			"type":"SCALAR"
		}
	],
	"bufferViews":[
		{
			"buffer":0,
			"byteLength":147228,
			"byteOffset":0,
			"target":34962
		},
		{
			"buffer":0,
			"byteLength":147228,
			"byteOffset":147228,
			"target":34962
		},
		{
			"buffer":0,
			"byteLength":98152,
			"byteOffset":294456,
			"target":34962
		},
		{
			"buffer":0,
			"byteLength":138192,
			"byteOffset":392608,
			"target":34963
		},
		{
			"buffer":0,
			"byteLength":135228,
			"byteOffset":530800,
			"target":34962
		},
		{
			"buffer":0,
			"byteLength":135228,
			"byteOffset":666028,
			"target":34962
		},
		{
			"buffer":0,
			"byteLength":90152,
			"byteOffset":801256,
			"target":34962
		},
		{
			"buffer":0,
			"byteLength":132240,
			"byteOffset":891408,
			"target":34963
		}
	],
	"samplers":[
		{
			"magFilter":9729,
			"minFilter":9987
		}
	],
	"buffers":[
		{
			"byteLength":1023648,
			"uri":"WovenElastic.bin"
		}
	]
}
